<svg width="294" height="294" viewBox="0 0 294 294" fill="none" xmlns="http://www.w3.org/2000/svg">
<path d="M61.2083 294C60.5713 294 59.9588 294 59.3217 293.975C42.2442 293.436 26.5878 286.062 15.2437 273.198C-5.38649 249.824 -4.82296 213.66 16.5178 190.899C27.8864 178.77 43.2733 171.91 59.8363 171.543C72.9935 171.249 83.2841 160.884 83.2841 147.948V146.061C83.2841 133.149 72.92 122.785 59.6892 122.466C43.9103 122.074 29.087 115.729 17.9388 104.556C6.03116 92.6484 -0.486212 76.159 0.0283173 59.3266C0.567348 42.2492 7.94227 26.5929 20.8055 15.2488C44.1799 -5.38127 80.3439 -4.81774 103.106 16.5229C115.234 27.8915 122.094 43.2783 122.462 59.8412C122.756 72.9984 133.12 83.2889 146.057 83.2889H147.943C160.856 83.2889 171.22 72.9249 171.538 59.6942C171.93 43.9153 178.276 29.092 189.449 17.944C201.356 6.03633 217.87 -0.530013 234.678 0.0335163C251.756 0.572545 267.412 7.94743 278.756 20.8106C299.386 44.1848 298.823 80.3487 277.482 103.11C266.114 115.239 250.727 122.099 234.164 122.466C221.007 122.76 210.716 133.125 210.716 146.061V147.948C210.716 160.86 221.08 171.224 234.311 171.543C250.09 171.935 264.913 178.28 276.061 189.453C287.969 201.361 294.486 217.85 293.972 234.682C293.433 251.76 286.058 267.416 273.195 278.76C249.82 299.39 213.656 298.827 190.894 277.486C178.766 266.118 171.906 250.731 171.538 234.168C171.244 221.011 160.88 210.72 147.943 210.72H146.057C133.144 210.72 122.78 221.084 122.462 234.315C122.07 250.094 115.724 264.917 104.551 276.065C93.0847 287.532 77.3793 294 61.2083 294ZM61.2083 9.90754L61.1961 9.90754C49.0474 9.91037 36.8752 14.1246 27.2739 22.5992C16.4688 32.1302 10.2699 45.2874 9.80438 59.6452C9.36335 74.0029 14.7047 87.5031 24.8482 97.6467C34.2078 107.006 46.679 112.347 59.9098 112.666C78.5063 113.131 93.0847 127.783 93.0847 146.061V147.948C93.0847 166.25 78.5798 180.927 60.0568 181.343C46.14 181.662 33.2032 187.419 23.6722 197.612C5.73714 216.747 5.27162 247.105 22.5941 266.73C32.1252 277.535 45.2824 283.734 59.6402 284.199C73.9981 284.665 87.4983 279.299 97.6419 269.156C107.001 259.772 112.343 247.325 112.661 234.094C113.127 215.498 127.779 200.92 146.057 200.92H147.943C166.246 200.92 180.922 215.424 181.339 233.947C181.657 247.864 187.415 260.801 197.608 270.332C216.743 288.267 247.101 288.732 266.726 271.41C277.531 261.879 283.73 248.722 284.196 234.388C284.637 220.031 279.295 206.53 269.152 196.387C259.768 187.027 247.321 181.686 234.09 181.343C215.494 180.902 200.915 166.226 200.915 147.948V146.061C200.915 127.734 215.42 113.082 233.943 112.666C247.86 112.372 260.797 106.59 270.328 96.3971C288.263 77.2616 288.728 46.9045 271.406 27.279C261.875 16.4739 248.718 10.2751 234.36 9.80953C220.051 9.36851 206.502 14.7098 196.358 24.8533C186.999 34.2128 181.657 46.684 181.314 59.9147C180.873 78.5111 166.197 93.0894 147.919 93.0894H146.032C127.705 93.0894 113.053 78.5847 112.637 60.0617C112.343 46.1449 106.56 33.2083 96.3679 23.6773C86.5949 14.5167 73.8837 9.9105 61.1961 9.90754L61.1838 9.90754L61.1961 9.90754L61.2083 9.90754Z" fill="#9473E8"/>
<path d="M61.1961 9.90754C49.0474 9.91037 36.8752 14.1246 27.2739 22.5992C16.4688 32.1302 10.2699 45.2874 9.80438 59.6452C9.36335 74.0029 14.7047 87.5031 24.8482 97.6467C34.2078 107.006 46.679 112.347 59.9098 112.666C78.5063 113.131 93.0847 127.783 93.0847 146.061V147.948C93.0847 166.25 78.5798 180.927 60.0568 181.343C46.14 181.662 33.2032 187.419 23.6722 197.612C5.73714 216.747 5.27162 247.105 22.5941 266.73C32.1252 277.535 45.2824 283.734 59.6402 284.199C73.9981 284.665 87.4983 279.299 97.6419 269.156C107.001 259.772 112.343 247.325 112.661 234.094C113.127 215.498 127.779 200.92 146.057 200.92H147.943C166.246 200.92 180.922 215.424 181.339 233.947C181.657 247.864 187.415 260.801 197.608 270.332C216.743 288.267 247.101 288.732 266.726 271.41C277.531 261.879 283.73 248.722 284.196 234.388C284.637 220.031 279.295 206.53 269.152 196.387C259.768 187.027 247.321 181.686 234.09 181.343C215.494 180.902 200.915 166.226 200.915 147.948V146.061C200.915 127.734 215.42 113.082 233.943 112.666C247.86 112.372 260.797 106.59 270.328 96.3971C288.263 77.2616 288.728 46.9045 271.406 27.279C261.875 16.4739 248.718 10.2751 234.36 9.80953C220.051 9.36851 206.502 14.7098 196.358 24.8533C186.999 34.2128 181.657 46.684 181.314 59.9147C180.873 78.5111 166.197 93.0894 147.919 93.0894H146.032C127.705 93.0894 113.053 78.5847 112.637 60.0617C112.343 46.1449 106.56 33.2083 96.3679 23.6773C86.5949 14.5167 73.8837 9.9105 61.1961 9.90754Z" fill="#9473E8"/>
</svg>
